<svg xmlns="http://www.w3.org/2000/svg" viewBox="0 0 51.32 36.44"><defs><style>.cls-1{fill:#aa50f9;}.cls-2{fill:#fff;opacity:0.25;}.cls-3{opacity:0.15;}.cls-4{fill:none;stroke:#000;stroke-linecap:round;stroke-linejoin:round;stroke-width:1.66px;}</style></defs><g id="Layer_2" data-name="Layer 2"><g id="Layer_1-2" data-name="Layer 1"><path class="cls-1" d="M48.85.83c-11.38,0-17.69,6-17.69,6h0a6.63,6.63,0,0,0-11,0s-6.31-6-17.69-6c-3.69,10.11,0,19.87,0,19.87s9.69-1.66,16-4.59h0L12.4,32.29l8.29,3.32,5.06-14.26.09.11,4.78,14.15,8.28-3.32L32.34,15.87C38.62,19,48.85,20.7,48.85,20.7S52.55,10.94,48.85.83Z"/><path class="cls-2" d="M25.66,4.14a6.61,6.61,0,0,0-5.6,3.09,6.62,6.62,0,0,1,9.13,9.13A6.62,6.62,0,0,0,25.66,4.14Z"/><path class="cls-3" d="M30,15.53a6.62,6.62,0,0,1-9.75-8.82l-.12.16s-.19-.18-.53-.45a8.25,8.25,0,0,0-5.35,11.33,41.07,41.07,0,0,0,4.19-1.64h0l-1.78,4.75a8.27,8.27,0,0,0,8.92.89l.14-.4.09.11.05.14A8.28,8.28,0,0,0,30,15.53Z"/><path class="cls-2" d="M19.88,8.28a4.54,4.54,0,0,1,.27-1.42c-.14-.13-6.42-6-17.68-6A27.11,27.11,0,0,0,1.08,6.54C5,6.42,14.15,6.37,19.88,8.28Z"/><path class="cls-2" d="M31.47,6.6v0l.83,1.66s9.37-2.93,17.77-2.87A26.77,26.77,0,0,0,48.86.83,28.11,28.11,0,0,0,31.47,6.6Z"/><polyline class="cls-4" points="27.31 16.98 20.69 35.61 12.4 32.3 18.47 16.12"/><polyline class="cls-4" points="25.84 21.46 30.62 35.61 38.9 32.3 32.28 15.73"/><path class="cls-4" d="M20.16,6.87s-6.31-6-17.69-6c-3.69,10.11,0,19.87,0,19.87s12.32-2.1,18.22-5.76"/><path class="cls-4" d="M31.16,6.87s6.31-6,17.69-6c3.7,10.11,0,19.87,0,19.87s-12.31-2.1-18.21-5.76"/><circle class="cls-4" cx="25.66" cy="10.56" r="6.62"/></g></g></svg>