<svg xmlns="http://www.w3.org/2000/svg" viewBox="0 0 63.16 42.94"><defs><style>.cls-1{fill:#aa50f9;}.cls-2{fill:#000064;opacity:0.12;}.cls-3{fill:#fff;opacity:0.15;}.cls-4{fill:none;stroke:#000;stroke-linecap:round;stroke-linejoin:round;stroke-width:1.27px;}</style></defs><g id="Layer_2" data-name="Layer 2"><g id="Layer_1-2" data-name="Layer 1"><path class="cls-1" d="M31.76,21.15C48.54,28,62.53,22.7,62.53,22.7,52,18.39,48,4.64,39.84,1.22Z"/><path class="cls-2" d="M39.84,1.22,31.76,21.16c.59.23,1.18.46,1.77.67l8-19.72A13,13,0,0,0,39.84,1.22Z"/><path class="cls-2" d="M53.7,15.88l-3.55,8.76a38.85,38.85,0,0,0,12.39-1.93A23.28,23.28,0,0,1,53.7,15.88Z"/><path class="cls-3" d="M46.94,7.27a25.7,25.7,0,0,0-4.35-4.42l-7.86,19.4a53.82,53.82,0,0,0,5.55,1.46Z"/><path class="cls-4" d="M39.84,1.22C48,4.64,52,18.39,62.53,22.7c0,0-14,5.26-30.77-1.55"/><line class="cls-4" x1="25.81" y1="35.81" x2="40.07" y2="0.63"/><path class="cls-1" d="M9.26,27.74C25.94,20.68,32.12,7.08,32.12,7.08c-10.5,4.4-23-2.5-31.24.85Z"/><path class="cls-2" d="M.88,7.93,9.27,27.74c.58-.25,1.16-.51,1.73-.78L2.71,7.37A11.39,11.39,0,0,0,.88,7.93Z"/><path class="cls-2" d="M21.05,8.5l3.68,8.7A38.65,38.65,0,0,0,32.12,7.07,23.29,23.29,0,0,1,21.05,8.5Z"/><path class="cls-3" d="M10.19,7.19A25.37,25.37,0,0,0,4,7.14l8.16,19.27a55.12,55.12,0,0,0,5-2.89Z"/><path class="cls-4" d="M.88,7.93c8.2-3.35,20.74,3.55,31.24-.85,0,0-6.18,13.6-22.86,20.66"/><line class="cls-4" x1="15.43" y1="42.31" x2="0.63" y2="7.35"/></g></g></svg>