<svg xmlns="http://www.w3.org/2000/svg" viewBox="0 0 66.07 31.54"><defs><style>.cls-1{fill:#aa50f9;}.cls-2{fill:#000064;opacity:0.15;}.cls-3{fill:none;stroke:#000;stroke-linecap:round;stroke-linejoin:round;stroke-width:1.6px;}</style></defs><g id="Layer_2" data-name="Layer 2"><g id="Layer_1-2" data-name="Layer 1"><path class="cls-1" d="M64.54,1.53,53.58.8,35.32,19.06,47,30.75,65.27,12.49Zm-6,7.53A2.07,2.07,0,1,1,60.62,7,2.07,2.07,0,0,1,58.56,9.06Z"/><polygon class="cls-2" points="55.03 0.9 53.58 0.8 35.32 19.06 47.01 30.75 48.82 28.94 37.91 18.03 55.03 0.9"/><polygon class="cls-3" points="47.01 30.75 35.32 19.06 53.58 0.8 64.54 1.53 65.27 12.49 47.01 30.75"/><path class="cls-3" d="M60.62,7a2.07,2.07,0,1,1-2.06-2.06A2.06,2.06,0,0,1,60.62,7Z"/><path class="cls-1" d="M47.28,1.53,36.32.8,18.06,19.06,29.75,30.75,48,12.49Zm-6,7.53A2.07,2.07,0,1,1,43.36,7,2.07,2.07,0,0,1,41.3,9.06Z"/><polygon class="cls-2" points="37.77 0.9 36.32 0.8 18.06 19.06 29.75 30.75 31.56 28.94 20.64 18.03 37.77 0.9"/><polygon class="cls-3" points="29.75 30.75 18.06 19.06 36.32 0.8 47.28 1.53 48.01 12.49 29.75 30.75"/><path class="cls-3" d="M43.36,7A2.07,2.07,0,1,1,41.3,4.93,2.06,2.06,0,0,1,43.36,7Z"/><path class="cls-1" d="M30,1.53,19.06.8.8,19.06,12.49,30.75,30.75,12.49ZM24,9.06A2.07,2.07,0,1,1,26.1,7,2.06,2.06,0,0,1,24,9.06Z"/><polygon class="cls-2" points="20.51 0.9 19.06 0.8 0.8 19.06 12.49 30.75 14.29 28.94 3.38 18.03 20.51 0.9"/><polygon class="cls-3" points="12.49 30.75 0.8 19.06 19.06 0.8 30.02 1.53 30.75 12.49 12.49 30.75"/><path class="cls-3" d="M26.1,7A2.07,2.07,0,1,1,24,4.93,2.07,2.07,0,0,1,26.1,7Z"/></g></g></svg>