<svg xmlns="http://www.w3.org/2000/svg" viewBox="0 0 61.88 43.18"><defs><style>.cls-1{fill:#aa50f9;}.cls-2{fill:#000064;opacity:0.15;}.cls-3{fill:none;stroke:#000;stroke-linecap:round;stroke-linejoin:round;stroke-width:1.6px;}</style></defs><g id="Layer_2" data-name="Layer 2"><g id="Layer_1-2" data-name="Layer 1"><polygon class="cls-1" points="25.34 32.79 50.93 32.79 61.07 13.6 24.29 13.6 25.34 32.79"/><polygon class="cls-2" points="30.76 29.59 29.89 13.6 24.29 13.6 25.34 32.79 50.93 32.79 52.62 29.59 30.76 29.59"/><ellipse class="cls-1" cx="24.89" cy="39.17" rx="3.53" ry="2.9" transform="translate(-19.86 26.88) rotate(-42.21)"/><ellipse class="cls-1" cx="45.68" cy="39.17" rx="3.53" ry="2.9" transform="translate(-14.47 40.85) rotate(-42.21)"/><polyline class="cls-3" points="15.6 0.8 23.59 0.8 24.3 13.62 61.08 13.62 50.93 32.81 25.34 32.81"/><ellipse class="cls-3" cx="24.89" cy="39.19" rx="3.53" ry="2.9" transform="translate(-19.87 26.89) rotate(-42.21)"/><ellipse class="cls-3" cx="45.69" cy="39.19" rx="3.53" ry="2.9" transform="translate(-14.48 40.86) rotate(-42.21)"/><line class="cls-3" x1="26.32" y1="22.51" x2="8.72" y2="22.51"/><line class="cls-3" x1="18.39" y1="18.62" x2="0.8" y2="18.62"/><line class="cls-3" x1="35.11" y1="26.39" x2="17.52" y2="26.39"/></g></g></svg>